<?xml version="1.0" encoding="utf-8"?>
<!-- Generator: Adobe Illustrator 16.0.0, SVG Export Plug-In . SVG Version: 6.00 Build 0)  -->
<!DOCTYPE svg PUBLIC "-//W3C//DTD SVG 1.1//EN" "http://www.w3.org/Graphics/SVG/1.1/DTD/svg11.dtd">
<svg version="1.1" id="Layer_1" xmlns="http://www.w3.org/2000/svg" xmlns:xlink="http://www.w3.org/1999/xlink" x="0px" y="0px"
	 width="34px" height="15px" viewBox="0 0 34 15" enable-background="new 0 0 34 15" xml:space="preserve">
<g>
	<g>
		<g>
			<g>
				<linearGradient id="SVGID_1_" gradientUnits="userSpaceOnUse" x1="0.7251" y1="5.9502" x2="33.1751" y2="5.9502">
					<stop  offset="0" style="stop-color:#8E8E8E"/>
					<stop  offset="1" style="stop-color:#4D4D4D"/>
				</linearGradient>
				<path fill-rule="evenodd" clip-rule="evenodd" fill="url(#SVGID_1_)" d="M0.8,6c0-0.2,1.5-0.5,4.6-0.7c0,0,0.1,0,0.1,0v1.3
					c0,0-0.1,0-0.1,0C2.3,6.4,0.8,6.2,0.8,6z"/>
				<linearGradient id="SVGID_2_" gradientUnits="userSpaceOnUse" x1="0.75" y1="10.3008" x2="33.2" y2="10.3008">
					<stop  offset="0" style="stop-color:#4E4E4E"/>
					<stop  offset="0.4627" style="stop-color:#9C9C9C"/>
					<stop  offset="1" style="stop-color:#3C3C3C"/>
				</linearGradient>
				<path fill-rule="evenodd" clip-rule="evenodd" fill="url(#SVGID_2_)" d="M33.2,6v7.8c0,0.3-1.6,0.5-4.8,0.7
					c-3.2,0.2-7,0.3-11.5,0.3s-8.3-0.1-11.5-0.3c-3.2-0.2-4.8-0.4-4.8-0.7V6c0,0.2,1.5,0.4,4.6,0.6c0,0,0.1,0,0.1,0
					c3.2,0.2,7,0.3,11.5,0.3s8.3-0.1,11.5-0.3c0,0,0.1,0,0.1,0C31.6,6.4,33.2,6.2,33.2,6z"/>
				<path fill-rule="evenodd" clip-rule="evenodd" fill="#848484" d="M5.5,5.3C8.7,5.1,12.5,5,17,5s8.3,0.1,11.5,0.3
					c0,0,0.1,0,0.1,0c3.1,0.2,4.7,0.4,4.7,0.7c0,0.2-1.6,0.4-4.7,0.6c0,0-0.1,0-0.1,0c-3.2,0.2-7,0.3-11.5,0.3S8.7,6.8,5.5,6.6V5.3z
					"/>
			</g>
		</g>
	</g>
	<g>
		<g>
			<g>
				<linearGradient id="SVGID_3_" gradientUnits="userSpaceOnUse" x1="8.895" y1="3.9087" x2="23.8696" y2="2.6539">
					<stop  offset="0" style="stop-color:#1C1C1C"/>
					<stop  offset="0.2314" style="stop-color:#AAAAAA"/>
					<stop  offset="1" style="stop-color:#1C1C1C"/>
				</linearGradient>
				<path fill-rule="evenodd" clip-rule="evenodd" fill="url(#SVGID_3_)" d="M8.9,0.9C9.1,0.9,9.8,1,11,1c1.5,0.1,3.3,0.1,5.4,0.1
					c2.1,0,3.8,0,5.3-0.1C23.1,1,23.8,0.9,24,0.9l-3,4.9c0,0,0,0.1,0,0.1C20.8,5.9,20.4,6,19.7,6c-0.8,0.1-1.9,0.2-3.1,0.2
					c-1.2,0-2.3-0.1-3.1-0.2c-0.7-0.1-1.1-0.1-1.2-0.3h-0.1c0,0,0,0,0,0L8.9,0.9z"/>
				<path fill-rule="evenodd" clip-rule="evenodd" fill="#666666" d="M24,0.9C23.8,0.9,23.1,1,21.7,1c-1.5,0.1-3.2,0.1-5.3,0.1
					c-2.1,0-3.9,0-5.4-0.1C9.8,1,9.1,0.9,8.9,0.9l0-0.1C9,0.7,9.7,0.6,11,0.5c1.5,0,3.3,0,5.4,0c2.1,0,3.8,0,5.3,0
					C23.2,0.6,24,0.7,24,0.9L24,0.9z"/>
			</g>
		</g>
		<g>
			
				<radialGradient id="SVGID_4_" cx="16.6001" cy="1.7002" r="24.3625" gradientTransform="matrix(1 0 0 0.2078 0 1.3469)" gradientUnits="userSpaceOnUse">
				<stop  offset="0" style="stop-color:#1C1C1C;stop-opacity:0"/>
				<stop  offset="0.3961" style="stop-color:#1C1C1C;stop-opacity:0"/>
				<stop  offset="1" style="stop-color:#1C1C1C"/>
			</radialGradient>
			<path fill-rule="evenodd" clip-rule="evenodd" fill="url(#SVGID_4_)" d="M8.9,0.9C9.1,0.9,9.8,1,11,1c1.5,0.1,3.3,0.1,5.4,0.1
				c2.1,0,3.8,0,5.3-0.1C23.1,1,23.8,0.9,24,0.9l-3,4.9c0,0,0,0.1,0,0.1C20.8,5.9,20.4,6,19.7,6c-0.8,0.1-1.9,0.2-3.1,0.2
				c-1.2,0-2.3-0.1-3.1-0.2c-0.7-0.1-1.1-0.1-1.2-0.3h-0.1c0,0,0,0,0,0L8.9,0.9z"/>
		</g>
	</g>
</g>
</svg>
